 <svg version="1.0" xmlns="http://www.w3.org/2000/svg" width="700.000000pt" height="394.000000pt" viewBox="0 0 700.000000 394.000000" preserveAspectRatio="xMidYMid meet">
<metadata>
Created by potrace 1.12, written by Peter Selinger 2001-2015
</metadata>
<g transform="translate(0.000000,394.000000) scale(0.100000,-0.100000)" fill="#000000" stroke="none">
<path d="M36 3791 c-4 -5 -2 -12 3 -15 5 -4 12 -2 15 3 4 5 2 12 -3 15 -5 4
-12 2 -15 -3z"></path>
<path d="M0 1885 l0 -1885 3500 0 3500 0 0 554 0 553 -187 5 c-169 4 -193 7
-238 28 -60 27 -133 59 -160 70 -11 4 -32 12 -47 18 -23 10 -28 8 -33 -8 -5
-15 -10 -17 -23 -10 -24 13 -132 29 -126 18 3 -4 -2 -8 -10 -8 -14 0 -17 5
-16 25 1 9 -28 35 -37 34 -4 -1 -15 -1 -23 0 -12 1 -13 3 -1 10 9 6 0 11 -30
16 -51 8 -69 20 -69 46 0 13 -10 20 -33 24 -20 4 -37 15 -42 28 -6 14 -19 22
-35 23 -53 1 -61 5 -72 29 -6 13 -19 27 -30 31 -10 3 -16 10 -12 15 3 6 -3 13
-15 16 -12 3 -21 13 -21 24 0 18 -44 38 -57 26 -3 -4 -14 -2 -24 3 -10 6 -43
7 -73 4 -43 -5 -53 -10 -49 -22 5 -12 0 -14 -25 -10 -26 4 -32 1 -32 -14 0
-10 5 -18 11 -18 7 0 9 -9 5 -24 -4 -17 -1 -26 10 -30 15 -6 15 -8 0 -24 -9
-10 -16 -26 -16 -34 0 -16 -85 -50 -155 -61 -73 -13 -335 68 -335 103 0 6 -11
10 -24 10 -14 0 -28 5 -32 11 -4 8 -26 9 -64 5 -35 -4 -61 -3 -64 3 -4 6 -12
8 -19 6 -7 -2 -30 -6 -52 -9 -60 -8 -104 -26 -110 -45 -6 -20 -70 -27 -91 -10
-7 6 -23 8 -36 4 -16 -4 -19 -3 -9 3 10 7 -9 18 -68 41 -66 25 -95 31 -150 30
-57 -1 -75 2 -96 19 -14 11 -40 24 -58 27 -65 13 -177 49 -177 57 0 4 5 8 10
8 6 0 10 5 10 10 0 6 -9 10 -20 10 -11 0 -20 -7 -20 -15 0 -18 -28 -19 -85 -4
-22 6 -49 12 -60 13 -26 2 -84 33 -112 58 -43 40 -283 98 -283 68 0 -4 -15
-11 -32 -15 -18 -4 -48 -13 -66 -22 -51 -23 -115 -26 -157 -9 l-37 16 23 19
c17 14 26 16 31 8 6 -9 8 -8 8 2 0 10 4 11 13 3 22 -19 43 9 46 61 1 26 -3 47
-8 47 -6 0 -7 -15 -4 -37 5 -29 3 -35 -8 -31 -8 4 -67 29 -131 57 l-117 51
-42 -19 c-43 -20 -63 -19 -56 2 4 14 -41 40 -54 31 -5 -3 -9 0 -9 7 0 8 -5 7
-17 -2 -11 -10 -14 -10 -9 -1 4 6 3 12 -3 12 -7 0 -7 8 -1 24 6 16 5 35 -3 56
-9 25 -17 31 -34 27 -13 -2 -23 1 -23 6 0 7 -4 7 -12 -1 -7 -7 -17 -8 -30 -1
-24 13 -23 22 8 58 14 17 22 31 18 31 -4 0 -13 -8 -20 -18 -12 -16 -14 -16
-29 -1 -16 16 -14 20 34 69 28 29 51 57 51 64 0 24 -18 38 -39 31 -22 -7 -28
4 -11 21 15 15 1 43 -30 59 -25 13 -29 12 -49 -6 -23 -21 -31 -3 -9 19 9 9 6
12 -13 12 -14 0 -29 -3 -32 -7 -4 -3 -37 -7 -74 -8 -38 -1 -74 -3 -80 -4 -18
-2 -16 -26 3 -67 22 -45 15 -141 -11 -160 -17 -13 -15 -44 4 -44 5 0 12 -7 15
-16 3 -8 2 -12 -4 -9 -5 3 -37 1 -71 -5 -46 -9 -73 -8 -108 1 -39 10 -52 9
-76 -3 -27 -14 -27 -16 -9 -25 10 -6 55 -18 99 -28 77 -17 146 -43 80 -31
-160 31 -241 50 -279 67 -49 21 -64 35 -20 19 14 -6 35 -10 47 -10 22 1 22 1
-3 22 -32 26 -215 114 -257 123 -29 6 -33 11 -39 52 -4 29 -3 48 4 52 8 5 7
15 -3 35 -8 16 -15 35 -15 42 0 8 -5 13 -11 12 -7 -2 -21 22 -31 52 -11 30
-24 59 -29 65 -5 5 -9 22 -9 37 0 21 -6 31 -24 38 -13 5 -27 14 -31 20 -4 6
-30 22 -58 36 -45 22 -65 26 -152 26 -83 -1 -101 -4 -112 -18 -12 -16 -17 -13
-14 8 0 3 -20 16 -45 28 -52 26 -132 24 -162 -2 -27 -25 -72 -30 -130 -15 -43
12 -56 12 -77 1 -14 -7 -39 -15 -56 -18 -50 -8 -97 -66 -53 -66 9 0 12 -5 8
-12 -11 -18 -12 -48 -2 -48 4 0 8 -5 8 -10 0 -6 -14 -3 -32 6 -27 14 -146 48
-270 78 -16 3 -28 12 -28 18 0 6 -7 19 -15 28 -13 14 -11 20 15 49 17 18 28
37 24 42 -19 32 47 81 128 94 31 5 37 10 36 28 -1 13 8 44 20 70 28 59 27 61
-3 77 -27 15 -33 30 -11 30 8 0 16 6 19 14 8 19 -49 27 -64 9 -13 -15 -29 -17
-29 -4 0 5 9 12 19 16 18 6 61 78 61 103 0 6 10 18 22 26 16 11 18 16 7 16 -8
0 -24 -7 -35 -15 -25 -19 -34 -19 -34 0 0 8 4 15 8 15 4 0 8 16 9 36 1 21 8
40 19 48 9 7 14 18 10 24 -8 13 -78 4 -88 -12 -13 -19 -20 21 -8 44 10 18 8
25 -9 41 -17 16 -19 24 -10 46 5 14 7 33 5 40 -3 8 7 21 25 32 41 25 24 33
-37 18 -39 -10 -50 -17 -52 -35 -3 -18 -8 -22 -25 -16 -34 10 -42 21 -26 40 8
9 13 25 11 34 -2 11 5 20 19 23 19 5 20 10 14 46 -4 27 -3 41 4 41 6 0 11 9
11 20 0 25 -5 25 -37 0 -18 -14 -30 -17 -38 -10 -6 5 -15 7 -18 4 -3 -4 -13 1
-22 10 -9 9 -20 16 -24 16 -15 0 -43 -39 -36 -50 4 -6 -6 -15 -23 -21 -19 -6
-36 -23 -47 -45 -27 -57 -52 -37 -49 39 1 42 -9 64 -18 36 -2 -5 -11 -7 -21
-3 -11 4 -16 13 -13 21 3 8 -1 21 -9 29 -8 8 -12 21 -8 29 4 11 1 13 -11 9 -9
-3 -32 3 -51 15 -20 12 -38 21 -41 21 -2 0 -4 -848 -4 -1885z m80 1808 c0 -5
-5 -15 -10 -23 -7 -12 -9 -10 -7 8 1 19 17 33 17 15z m452 -1223 c6 -15 5 -27
-3 -34 -8 -8 -13 -8 -16 2 -3 6 -13 12 -24 12 -17 0 -27 28 -14 42 13 13 49
-1 57 -22z m78 -10 c0 -5 -9 -14 -19 -19 -15 -9 -20 -7 -24 9 -4 16 0 20 19
20 13 0 24 -4 24 -10z m393 -301 c107 -23 317 -120 255 -117 -20 1 -35 5 -32
9 2 4 -5 9 -16 12 -13 3 -18 1 -13 -6 4 -7 0 -8 -13 -3 -10 5 -32 12 -49 16
-39 10 -275 110 -275 117 0 3 12 2 28 -2 15 -4 67 -15 115 -26z m291 -19 c149
-35 256 -68 271 -83 7 -7 5 -8 -6 -5 -8 3 -85 25 -170 48 -85 24 -174 48 -199
55 -83 23 -29 15 104 -15z m276 -11 c0 -5 -7 -9 -15 -9 -15 0 -20 12 -9 23 8
8 24 -1 24 -14z m1050 -29 c0 -5 -4 -10 -10 -10 -5 0 -10 5 -10 10 0 6 5 10
10 10 6 0 10 -4 10 -10z m-182 -39 c20 -36 20 -57 0 -45 -7 5 -38 69 -38 80 0
16 20 -3 38 -35z m-611 13 c-3 -3 -12 -4 -19 -1 -8 3 -5 6 6 6 11 1 17 -2 13
-5z m53 -14 c0 -5 -2 -10 -4 -10 -3 0 -8 5 -11 10 -3 6 -1 10 4 10 6 0 11 -4
11 -10z m-655 -78 c5 -3 25 -7 45 -9 19 -2 50 -13 69 -24 19 -11 40 -18 47
-15 9 3 14 -2 14 -14 0 -11 -4 -20 -10 -20 -5 0 -10 -7 -10 -15 0 -8 4 -15 9
-15 5 0 16 -3 25 -6 10 -4 16 -1 16 8 0 22 29 58 43 52 8 -3 11 -26 9 -75 -2
-43 1 -76 7 -82 19 -19 30 5 32 76 2 49 6 67 16 67 11 0 11 -4 3 -21 -6 -11
-9 -25 -7 -32 4 -11 8 -5 22 39 12 38 30 3 39 -74 7 -57 13 -82 23 -82 8 0 13
11 13 28 0 36 35 105 56 108 8 1 14 -3 11 -9 -15 -41 -17 -57 -8 -57 6 0 11
-18 11 -40 0 -29 4 -40 15 -40 10 0 15 10 15 28 0 32 46 105 61 96 6 -3 8 -12
5 -20 -3 -8 0 -39 6 -69 10 -51 13 -55 39 -55 16 0 29 5 29 10 0 6 17 10 38
10 25 0 33 3 23 9 -8 5 38 9 118 9 110 0 136 3 151 17 14 13 23 14 37 6 17
-10 17 -10 1 -11 -15 0 -18 -10 -18 -60 0 -73 15 -79 23 -9 6 47 23 86 34 75
3 -2 7 -30 9 -62 6 -91 25 -91 27 0 1 30 4 52 7 48 3 -5 13 -12 24 -15 10 -4
16 -13 13 -21 -6 -15 13 -90 26 -102 6 -7 12 43 10 91 -1 14 5 21 17 21 15 0
20 -11 25 -58 8 -71 25 -76 25 -9 0 28 5 53 12 57 8 5 9 0 6 -14 -4 -12 -3
-20 2 -17 12 7 20 -21 20 -72 0 -36 4 -46 20 -50 11 -3 20 -10 20 -15 0 -5 -8
-7 -19 -3 -49 15 -184 33 -215 28 -20 -3 -57 2 -90 12 -30 10 -62 15 -70 12
-20 -8 -28 3 -15 20 9 10 8 13 -4 13 -8 0 -17 -6 -19 -12 -3 -9 -21 -5 -61 15
-43 21 -81 30 -159 37 -57 6 -179 17 -273 26 -93 9 -242 20 -330 24 -88 4
-187 12 -220 18 -33 6 -76 11 -95 10 -94 -2 -351 19 -362 30 -15 15 250 7 432
-14 69 -8 142 -14 163 -14 35 0 36 1 25 21 -10 16 -20 19 -46 15 -18 -3 -44
-1 -58 4 -20 8 -23 15 -20 42 2 18 4 61 5 94 l1 62 53 0 c28 -1 56 -3 62 -6z
m975 -12 c0 -5 -2 -10 -4 -10 -3 0 -8 5 -11 10 -3 6 -1 10 4 10 6 0 11 -4 11
-10z m325 -60 c14 -5 25 -11 25 -13 0 -6 -155 34 -163 43 -9 8 96 -14 138 -30z
m-229 14 c19 -15 19 -15 -1 -6 -11 5 -27 12 -35 15 -13 5 -13 6 1 6 8 1 24 -6
35 -15z m-856 -2 c0 -15 -28 -47 -35 -40 -8 8 13 48 25 48 6 0 10 -4 10 -8z
m207 -64 c-3 -8 -6 -5 -6 6 -1 11 2 17 5 13 3 -3 4 -12 1 -19z m102 3 c10 -7
11 -13 2 -27 -10 -18 -10 -18 -11 3 0 12 -6 24 -12 26 -7 3 -8 6 -3 6 6 0 16
-3 24 -8z m1237 -35 c10 -22 9 -24 -8 -17 -11 4 -19 10 -19 14 1 4 1 12 1 17
0 18 15 10 26 -14z m-428 -24 c2 -18 -1 -32 -6 -32 -5 0 -9 6 -9 13 0 6 -3 23
-7 36 -6 17 -5 22 5 19 8 -3 15 -19 17 -36z m495 21 c3 -5 1 -17 -4 -28 -4
-11 -8 -15 -8 -8 -1 6 -4 18 -7 27 -6 16 11 23 19 9z m-423 -51 c0 -30 16 -52
37 -52 8 0 13 12 13 30 0 17 5 30 10 30 6 0 10 -13 10 -30 0 -16 5 -30 10 -30
6 0 10 14 10 31 0 17 4 28 10 24 16 -10 11 -52 -7 -59 -10 -4 -45 -4 -79 0
-52 5 -63 10 -68 27 -3 12 -1 26 4 31 7 7 10 4 10 -7 0 -9 5 -17 10 -17 6 0
10 11 10 25 0 14 5 25 10 25 6 0 10 -13 10 -28z m280 18 c0 -5 9 -10 20 -10
10 0 27 -8 37 -18 10 -11 26 -22 36 -25 9 -4 17 -12 17 -20 0 -9 9 -12 28 -9
18 2 33 -2 42 -13 13 -16 9 -16 -56 -12 -107 7 -258 27 -266 35 -4 4 18 24 49
45 55 36 93 47 93 27z m-259 -43 c-8 -8 -11 -5 -11 9 0 27 14 41 18 19 2 -9
-1 -22 -7 -28z m479 3 c0 -5 -5 -10 -11 -10 -5 0 -7 5 -4 10 3 6 8 10 11 10 2
0 4 -4 4 -10z m-284 -120 c27 -8 26 -8 -16 -9 -77 -1 -188 12 -160 19 31 8
136 2 176 -10z m994 -83 c8 -3 -3 -5 -25 -5 -22 0 -32 2 -22 5 9 2 17 10 17
16 0 9 2 9 8 1 4 -6 14 -14 22 -17z m-2963 7 c-3 -3 -12 -4 -19 -1 -8 3 -5 6
6 6 11 1 17 -2 13 -5z m3010 -10 c-3 -3 -12 -4 -19 -1 -8 3 -5 6 6 6 11 1 17
-2 13 -5z m-895 -22 c8 2 14 -10 16 -34 2 -21 7 -38 13 -38 5 0 9 -4 9 -9 0
-11 -138 -13 -175 -2 -25 8 -26 9 -7 10 12 1 22 6 22 12 0 7 -19 10 -52 7 -48
-3 -53 -1 -56 19 -4 29 21 41 83 39 47 -1 50 -3 53 -28 4 -37 22 -36 22 1 0
32 16 43 42 30 9 -5 23 -8 30 -7z m824 -7 c-3 -8 -2 -14 2 -14 44 7 71 -14 32
-24 -14 -4 -30 4 -51 24 l-30 29 27 0 c19 0 25 -4 20 -15z m-716 -35 c0 -48
14 -52 26 -7 7 22 17 33 32 35 19 3 22 -1 22 -32 0 -45 13 -46 25 -3 15 48 39
42 43 -10 2 -29 8 -43 18 -43 8 0 14 -5 14 -11 0 -13 -131 -3 -193 16 -37 11
-42 16 -45 45 -4 34 9 50 41 50 13 0 17 -9 17 -40z m880 8 c0 -19 -25 -25 -35
-8 -8 14 1 27 20 27 8 0 15 -9 15 -19z m51 -12 c1 -20 1 -20 7 -1 11 33 32 29
32 -7 l0 -31 25 23 c25 23 25 23 25 2 0 -11 5 -24 10 -27 6 -4 10 5 10 21 0
21 3 24 14 15 8 -6 16 -25 18 -42 4 -29 3 -30 -21 -24 -14 3 -48 7 -76 9 -57
3 -118 23 -109 37 3 5 9 7 14 4 5 -3 11 8 15 24 7 34 34 32 36 -3z m-3093 -31
c61 -14 43 -25 -42 -25 -47 0 -86 -4 -86 -8 0 -5 9 -17 21 -28 19 -17 21 -27
17 -131 l-3 -113 79 0 c67 0 77 2 62 13 -15 11 -16 21 -7 92 14 119 17 133 30
149 9 11 9 16 0 22 -26 15 20 32 79 27 81 -6 82 -6 71 -50 -13 -57 -11 -72 5
-50 7 9 16 17 19 17 4 0 8 -46 9 -102 l3 -103 53 -3 52 -3 0 105 c0 66 4 107
11 112 8 4 9 0 4 -15 -14 -44 11 -19 31 32 l20 52 59 -3 c66 -3 77 -8 55 -25
-16 -13 -16 -48 0 -82 5 -11 11 -51 12 -90 l3 -70 49 0 49 0 -2 87 c-2 62 2
95 13 117 l16 30 -53 3 c-28 2 -52 8 -52 13 0 13 40 18 82 10 32 -6 35 -9 30
-33 -3 -15 -9 -35 -12 -44 -4 -11 -3 -18 4 -18 6 0 11 8 11 18 0 9 9 32 21 51
18 31 23 33 57 26 44 -8 57 -15 45 -24 -14 -9 -25 -71 -13 -71 6 0 10 5 10 10
0 6 3 10 8 10 4 0 8 -41 9 -92 l2 -91 43 0 43 0 3 91 c2 60 7 94 16 101 11 9
12 6 8 -14 -7 -38 4 -30 28 20 13 28 28 45 38 44 22 -1 70 -17 57 -18 -5 -1
-10 -18 -11 -39 0 -20 1 -31 3 -24 3 6 9 12 14 12 5 0 9 -38 9 -84 l0 -83 31
-7 c60 -12 59 -14 59 87 0 58 4 97 12 105 16 16 7 22 -43 28 -24 3 -45 7 -48
9 -10 11 33 17 74 11 48 -8 55 -19 34 -58 -7 -13 -7 -24 -1 -30 6 -6 11 1 15
19 9 47 39 77 69 70 23 -6 26 -13 31 -74 4 -38 7 -98 7 -135 0 -70 14 -98 50
-98 10 0 20 -7 24 -15 5 -13 -16 -15 -147 -17 -84 0 -198 0 -255 1 -71 2 -108
-1 -118 -10 -12 -10 -22 -10 -50 0 -18 7 -39 9 -46 5 -7 -4 -190 -9 -408 -10
-217 -1 -438 -7 -490 -12 -52 -6 -159 -13 -237 -16 -78 -3 -145 -6 -150 -7
-26 -5 -45 2 -40 15 3 8 -1 17 -9 20 -12 5 -14 25 -13 103 2 108 5 123 25 123
7 0 29 9 49 20 20 11 42 20 50 20 7 0 26 11 42 24 15 13 44 27 63 31 19 4 40
11 45 15 19 14 125 50 156 52 17 1 33 6 35 10 5 8 50 5 102 -7z m1628 -32
c-11 -11 -19 6 -11 24 8 17 8 17 12 0 3 -10 2 -21 -1 -24z m-1231 7 c0 -11
-14 -16 -60 -18 -63 -2 -93 8 -80 27 11 19 140 10 140 -9z m3100 0 c37 -7 35
-8 -23 -9 -43 -1 -68 4 -78 13 -15 16 -1 15 101 -4z m-130 0 c-3 -5 -27 -9
-53 -9 -42 1 -44 2 -17 9 45 11 77 11 70 0z m-2442 -6 c57 -10 44 -24 -23 -24
-55 0 -70 6 -53 23 8 9 27 9 76 1z m1147 -25 c0 -5 -15 -9 -32 -9 -20 0 -28 3
-21 8 18 11 53 12 53 1z m836 -25 c-5 -13 -10 -14 -18 -6 -6 6 -8 18 -4 28 5
13 10 14 18 6 6 -6 8 -18 4 -28z m39 -4 c0 -13 -5 -25 -11 -27 -6 -2 -11 10
-11 27 0 17 5 29 11 27 6 -2 11 -14 11 -27z m65 -1 c0 -10 -5 -19 -11 -19 -5
0 -7 5 -4 10 3 6 -1 13 -10 16 -13 5 -14 9 -4 15 18 10 29 2 29 -22z m-874 6
c7 -18 -12 -45 -32 -45 -18 0 -19 46 -1 53 21 9 27 7 33 -8z m1412 -20 c2 -15
13 -36 25 -46 22 -18 22 -18 -9 -10 -50 14 -76 31 -70 47 5 12 2 12 -15 3 -23
-12 -35 -7 -24 10 3 6 19 11 36 11 16 0 29 5 29 11 0 23 25 1 28 -26z m-168 3
c0 -10 -49 -22 -56 -15 -4 3 -3 10 0 16 8 12 56 11 56 -1z m-1727 -27 c8 -8
-2 -11 -37 -9 -32 2 -51 8 -54 17 -4 11 4 13 38 8 23 -3 47 -10 53 -16z m1575
-51 c14 0 13 -2 -4 -14 -27 -19 -74 -9 -74 15 0 11 4 19 10 19 5 0 7 8 4 18
-5 16 -5 16 6 0 15 -25 30 -22 32 5 1 13 3 9 5 -10 3 -22 10 -33 21 -33z
m-268 34 c0 -2 -9 -4 -20 -4 -11 0 -20 4 -20 9 0 5 9 7 20 4 11 -3 20 -7 20
-9z m-535 -101 c-6 -32 -7 -33 -55 -33 -38 0 -50 4 -50 15 0 8 9 15 19 15 11
0 23 5 26 10 4 7 12 7 25 0 29 -15 30 -14 32 43 1 39 2 43 5 18 3 -19 2 -50
-2 -68z m843 52 c-3 -3 -9 2 -12 12 -6 14 -5 15 5 6 7 -7 10 -15 7 -18z
m-1518 7 c0 -5 12 -13 28 -19 26 -10 26 -11 4 -12 -13 -1 -30 5 -38 13 -16 17
-18 26 -4 26 6 0 10 -4 10 -8z m307 -28 c2 -6 -10 -8 -32 -6 -19 2 -33 7 -31
11 7 11 59 7 63 -5z m997 -175 c-10 -4 -39 -7 -64 -7 l-45 0 48 8 c27 5 51 11
54 14 3 3 10 3 16 -1 6 -4 3 -10 -9 -14z m93 -35 c-3 -3 -12 -4 -19 -1 -8 3
-5 6 6 6 11 1 17 -2 13 -5z m36 -21 c-7 -2 -19 -2 -25 0 -7 3 -2 5 12 5 14 0
19 -2 13 -5z m104 -18 c0 -10 -6 -14 -14 -10 -8 3 -19 5 -24 5 -6 0 -7 5 -4
10 10 16 42 12 42 -5z m-52 -17 c6 -6 -1 -7 -20 -2 -16 3 -34 11 -40 16 -6 6
1 7 20 2 17 -3 35 -11 40 -16z m65 -28 c18 -12 2 -12 -25 0 -13 6 -15 9 -5 9
8 0 22 -4 30 -9z m110 -58 c-7 -3 -19 3 -28 13 -16 15 -15 16 12 4 15 -7 23
-15 16 -17z m-1575 -22 c6 -4 44 -17 85 -29 89 -27 145 -50 137 -57 -3 -3 -35
4 -72 15 -77 24 -78 24 -70 11 9 -14 -15 -12 -45 3 -32 16 -97 36 -135 40 -28
4 -28 5 -8 12 13 4 20 12 17 17 -7 11 74 1 91 -12z m-67 -36 c24 -7 31 -24 9
-24 -15 0 -57 29 -42 30 6 0 20 -3 33 -6z m-154 -72 c-4 -12 -10 -22 -15 -22
-10 0 -12 21 -3 45 9 24 24 4 18 -23z m1790 -73 c-7 -81 1 -149 16 -149 6 0
10 6 10 14 0 22 56 38 71 20 6 -8 19 -14 28 -15 9 0 2 -5 -16 -10 -22 -7 -31
-14 -27 -24 4 -10 0 -15 -12 -15 -17 0 -16 -1 2 -15 12 -9 14 -14 6 -15 -7 0
-11 -4 -7 -9 7 -13 -55 5 -69 19 -7 7 -12 71 -14 158 -2 102 1 142 8 132 6 -9
7 -45 4 -91z m-1614 51 c6 -11 10 -26 9 -33 -3 -14 10 -75 21 -97 27 -54 46
-129 41 -159 -1 -8 -12 -22 -24 -32 -19 -16 -20 -19 -4 -20 9 -1 22 -2 29 -3
24 -2 18 -26 -9 -31 -58 -13 -63 -13 -57 -4 3 5 -2 9 -10 9 -22 0 -66 47 -66
71 0 11 -11 31 -25 44 -17 15 -22 26 -15 30 8 5 8 10 0 20 -6 7 -10 33 -10 57
1 23 -1 66 -3 93 -4 41 -9 51 -26 53 -12 2 -21 10 -21 18 0 11 7 10 35 -6 l35
-19 26 24 c29 27 54 22 74 -15z m-1599 -25 c5 4 9 3 9 -1 0 -8 -32 -33 -42
-34 -12 0 -9 29 4 53 l13 22 3 -23 c2 -12 8 -20 13 -17z m41 10 c0 -5 -5 -11
-11 -13 -6 -2 -11 4 -11 13 0 9 5 15 11 13 6 -2 11 -8 11 -13z m1878 -110 c0
-42 -4 -65 -11 -65 -7 0 -17 -8 -24 -17 -12 -16 -16 -16 -40 -3 -33 17 -45 39
-51 91 -4 34 -2 41 18 49 13 5 42 9 66 9 l42 1 0 -65z m1409 56 c11 -7 9 -11
-8 -20 -18 -10 -21 -9 -21 9 0 22 7 25 29 11z m-2674 -10 c3 -5 1 -12 -5 -16
-5 -3 -10 1 -10 9 0 18 6 21 15 7z m598 -7 c42 -7 46 -21 20 -65 -15 -26 -32
-31 -63 -19 -3 2 -8 2 -12 1 -5 0 -8 10 -8 23 0 14 -4 28 -10 31 -5 3 -10 13
-10 21 0 15 23 17 83 8z m-398 -30 c1 -12 6 -17 15 -15 35 11 113 12 122 3 6
-6 7 -24 3 -42 -6 -26 -11 -31 -28 -26 -15 3 -31 -4 -50 -24 -18 -18 -36 -27
-49 -25 -24 5 -37 15 -20 15 7 0 12 10 12 23 0 20 -2 19 -21 -10 -12 -18 -24
-33 -29 -33 -12 0 -5 89 8 102 7 7 12 23 12 36 0 28 25 25 25 -4z m567 -23
c-11 -25 -21 -36 -26 -30 -6 6 -6 13 2 21 16 16 15 28 -3 28 -10 0 -15 -10
-15 -30 0 -16 -4 -30 -9 -30 -15 0 -23 18 -11 25 5 3 7 17 4 31 -6 22 -4 24
34 24 l41 0 -17 -39z m-767 -13 c4 -3 -3 -9 -14 -13 -23 -7 -27 -20 -11 -30 6
-3 18 7 28 24 23 42 51 42 46 0 -5 -37 -22 -55 -52 -53 -13 1 -27 -7 -33 -18
-15 -28 -27 -11 -30 41 -3 36 0 45 16 51 22 8 41 7 50 -2z m131 -15 c-10 -10
-19 5 -10 18 6 11 8 11 12 0 2 -7 1 -15 -2 -18z m-440 -32 c2 -40 -1 -50 -16
-54 -10 -3 -24 0 -30 7 -9 8 -10 1 -5 -31 6 -36 4 -42 -15 -48 -12 -4 -23 -5
-24 -3 -1 1 -7 15 -14 31 -6 15 -18 27 -26 27 -20 0 -44 42 -27 48 25 8 8 18
-29 16 -33 -2 -39 1 -30 11 7 8 43 14 102 17 62 2 93 7 96 16 8 26 17 10 18
-37z m214 30 c0 -17 -29 -76 -30 -59 0 9 -6 19 -12 22 -10 5 -10 7 -1 12 7 3
9 12 6 20 -3 9 2 14 16 14 12 0 21 -4 21 -9z m220 -33 c0 -5 -4 -7 -9 -3 -5 3
-12 -5 -14 -17 -3 -17 -5 -15 -6 9 -1 25 2 31 14 27 8 -4 15 -10 15 -16z
m2598 -154 c2 -49 7 -93 12 -98 7 -7 10 -3 10 8 0 10 14 35 30 56 17 21 30 43
30 49 0 6 5 11 11 11 15 0 7 -109 -9 -119 -6 -3 -16 -19 -22 -35 -9 -24 -8
-27 2 -18 8 6 27 13 43 16 17 3 35 13 42 22 10 14 14 12 29 -13 10 -15 22 -30
25 -33 4 -3 9 -14 11 -25 3 -17 -3 -19 -51 -21 -32 0 -57 -6 -59 -12 -2 -7
-19 -12 -38 -12 -23 0 -33 4 -29 11 4 6 13 8 20 5 15 -5 38 17 28 27 -3 4 -21
7 -40 7 -28 0 -33 -4 -33 -23 0 -21 -5 -24 -40 -24 -22 0 -40 1 -41 1 -4 7
-15 274 -12 284 3 6 15 12 27 12 17 0 18 2 6 10 -11 7 -7 8 15 6 l30 -3 3 -89z
m-158 -86 c0 -52 -4 -88 -10 -88 -6 0 -10 41 -10 103 0 69 3 97 10 87 5 -8 10
-54 10 -102z m545 102 c-11 -5 -27 -9 -35 -9 -13 -1 -13 0 0 9 8 5 24 9 35 9
l20 0 -20 -9z m-1975 -20 c0 -5 11 -10 24 -10 14 0 37 -5 53 -12 23 -9 25 -12
10 -15 -11 -3 -16 -11 -13 -18 3 -9 0 -12 -8 -9 -8 3 -17 1 -21 -5 -3 -6 -14
-11 -23 -11 -15 0 -15 2 -2 10 13 9 11 14 -12 33 -28 23 -37 47 -18 47 6 0 10
-4 10 -10z m297 -6 c-3 -3 -12 -4 -19 -1 -8 3 -5 6 6 6 11 1 17 -2 13 -5z
m-384 -85 c9 0 -68 -28 -80 -29 -2 0 -3 7 -3 15 0 8 6 12 14 9 8 -3 17 0 21 6
4 6 14 9 22 6 8 -3 20 -6 26 -7z m217 -5 c0 -8 -19 -13 -24 -6 -3 5 1 9 9 9 8
0 15 -2 15 -3z m37 -25 c-4 -16 -3 -18 9 -8 15 12 17 6 8 -27 -4 -14 -14 -21
-30 -21 -27 0 -28 0 -15 25 5 9 12 25 15 35 8 24 19 21 13 -4z m1643 -9 c0 -5
-4 -10 -10 -10 -5 0 -10 5 -10 10 0 6 5 10 10 10 6 0 10 -4 10 -10z m95 -22
c6 -6 1 -9 -15 -8 -39 3 -46 1 -30 -10 11 -8 7 -9 -15 -4 -39 9 -40 11 -26 28
13 16 67 12 86 -6z m-31 -47 c3 -4 -8 -8 -24 -7 -17 1 -30 4 -30 9 0 10 48 9
54 -2z m-137 -17 c-3 -3 -12 -4 -19 -1 -8 3 -5 6 6 6 11 1 17 -2 13 -5z
m-1517 -14 c0 -5 -4 -10 -10 -10 -5 0 -10 5 -10 10 0 6 5 10 10 10 6 0 10 -4
10 -10z m1723 3 c-7 -2 -19 -2 -25 0 -7 3 -2 5 12 5 14 0 19 -2 13 -5z"></path>
<path d="M1298 1843 c4 -62 13 -82 35 -83 4 0 6 34 5 75 -1 69 -3 75 -23 75
-20 0 -21 -4 -17 -67z"></path>
<path d="M1430 1760 c0 -5 5 -10 10 -10 6 0 10 5 10 10 0 6 -4 10 -10 10 -5 0
-10 -4 -10 -10z"></path>
<path d="M1540 1750 c0 -5 5 -10 10 -10 6 0 10 5 10 10 0 6 -4 10 -10 10 -5 0
-10 -4 -10 -10z"></path>
<path d="M2830 1755 c-10 -12 -10 -15 3 -15 19 0 31 16 18 24 -5 3 -14 -1 -21
-9z"></path>
<path d="M2900 1746 c0 -14 5 -26 10 -26 6 0 10 9 10 19 0 11 -4 23 -10 26 -6
4 -10 -5 -10 -19z"></path>
<path d="M619 1143 c-3 -21 4 -59 12 -67 5 -6 9 4 9 26 0 20 -4 40 -10 43 -5
3 -10 3 -11 -2z"></path>
<path d="M1770 1103 c-36 -7 -49 -23 -14 -19 16 2 44 4 62 5 17 0 32 6 32 11
0 10 -33 11 -80 3z"></path>
<path d="M2666 683 c-9 -9 -7 -33 3 -33 12 0 22 28 12 34 -5 3 -11 3 -15 -1z"></path>
<path d="M2750 523 c0 -5 4 -15 10 -23 11 -18 25 -7 17 15 -6 15 -27 21 -27 8z"></path>
<path d="M3440 3610 c0 -5 5 -10 10 -10 6 0 10 5 10 10 0 6 -4 10 -10 10 -5 0
-10 -4 -10 -10z"></path>
<path d="M3520 3600 c0 -5 5 -10 11 -10 5 0 7 5 4 10 -3 6 -8 10 -11 10 -2 0
-4 -4 -4 -10z"></path>
<path d="M3762 3590 c3 -26 43 -57 52 -41 6 9 0 17 -40 50 -14 12 -15 11 -12
-9z"></path>
<path d="M3460 3565 c7 -8 17 -15 22 -15 6 0 5 7 -2 15 -7 8 -17 15 -22 15 -6
0 -5 -7 2 -15z"></path>
<path d="M3577 3563 c-14 -14 -6 -19 23 -15 17 2 30 8 30 13 0 10 -43 12 -53
2z"></path>
<path d="M3330 3516 c0 -9 5 -16 10 -16 6 0 10 4 10 9 0 6 -4 13 -10 16 -5 3
-10 -1 -10 -9z"></path>
<path d="M3900 3521 c0 -5 12 -17 27 -26 14 -10 46 -36 70 -58 24 -22 46 -38
48 -35 7 6 -122 128 -135 128 -6 0 -10 -4 -10 -9z"></path>
<path d="M3390 3508 c1 -29 17 -40 49 -33 37 8 41 25 7 25 -14 0 -28 5 -31 10
-9 14 -25 12 -25 -2z"></path>
<path d="M3340 3470 c11 -20 50 -28 50 -10 0 6 -9 10 -20 10 -11 0 -20 5 -20
10 0 6 -5 10 -10 10 -7 0 -7 -6 0 -20z"></path>
<path d="M3216 3454 c-4 -9 -4 -19 -2 -21 8 -8 26 8 26 23 0 19 -16 18 -24 -2z"></path>
<path d="M3590 3460 c0 -5 5 -10 10 -10 6 0 10 5 10 10 0 6 -4 10 -10 10 -5 0
-10 -4 -10 -10z"></path>
<path d="M546 3441 c-4 -7 -5 -15 -2 -18 9 -9 19 4 14 18 -4 11 -6 11 -12 0z"></path>
<path d="M3910 3430 c0 -5 5 -10 11 -10 5 0 7 5 4 10 -3 6 -8 10 -11 10 -2 0
-4 -4 -4 -10z"></path>
<path d="M3781 3386 c-8 -10 -9 -16 -1 -21 13 -8 30 3 30 21 0 18 -14 18 -29
0z"></path>
<path d="M3850 3392 c0 -5 7 -17 15 -28 13 -16 16 -17 25 -4 9 13 13 12 28 -8
10 -13 21 -20 25 -16 15 15 6 32 -27 48 -37 17 -66 21 -66 8z"></path>
<path d="M3972 3391 c-18 -11 54 -72 75 -64 11 5 12 7 2 14 -7 4 -17 6 -21 3
-4 -3 -16 8 -26 25 -12 19 -22 27 -30 22z"></path>
<path d="M4120 3390 c0 -5 5 -10 10 -10 6 0 10 5 10 10 0 6 -4 10 -10 10 -5 0
-10 -4 -10 -10z"></path>
<path d="M5593 3379 c3 -12 1 -30 -6 -40 -14 -23 -3 -36 17 -19 9 6 21 10 28
7 18 -6 48 11 48 28 0 9 -10 15 -24 15 -13 0 -29 7 -36 15 -18 22 -33 18 -27
-6z"></path>
<path d="M3306 3382 c-7 -12 22 -38 31 -28 4 3 0 14 -9 22 -9 10 -18 12 -22 6z"></path>
<path d="M3160 3354 c0 -8 5 -12 10 -9 6 3 10 10 10 16 0 5 -4 9 -10 9 -5 0
-10 -7 -10 -16z"></path>
<path d="M3720 3358 c0 -16 57 -78 71 -78 15 0 10 18 -8 32 -10 7 -23 22 -29
33 -13 23 -34 31 -34 13z"></path>
<path d="M3507 3353 c-11 -11 -8 -61 5 -69 17 -11 40 26 27 42 -6 7 -8 18 -4
24 7 11 -17 14 -28 3z"></path>
<path d="M3276 3341 c-7 -11 3 -41 13 -41 12 0 31 23 31 37 0 15 -36 18 -44 4z"></path>
<path d="M5464 3321 c2 -39 12 -48 25 -23 13 24 5 52 -14 52 -8 0 -12 -11 -11
-29z"></path>
<path d="M5690 3329 c0 -18 2 -19 15 -9 8 7 15 16 15 21 0 5 -7 9 -15 9 -9 0
-15 -9 -15 -21z"></path>
<path d="M5750 3338 c-10 -61 -8 -98 5 -98 11 0 15 12 15 44 0 25 -4 48 -10
51 -5 3 -10 5 -10 3z"></path>
<path d="M3205 3320 c-3 -5 -1 -10 4 -10 6 0 11 5 11 10 0 6 -2 10 -4 10 -3 0
-8 -4 -11 -10z"></path>
<path d="M3440 3314 c0 -9 5 -14 12 -12 18 6 21 28 4 28 -9 0 -16 -7 -16 -16z"></path>
<path d="M3836 3322 c-3 -5 6 -19 19 -30 14 -12 25 -26 25 -32 0 -5 7 -10 15
-10 18 0 10 24 -20 56 -24 26 -31 29 -39 16z"></path>
<path d="M3972 3308 c6 -18 28 -21 28 -4 0 9 -7 16 -16 16 -9 0 -14 -5 -12
-12z"></path>
<path d="M4376 3275 c3 -14 1 -31 -4 -38 -11 -13 -12 -57 -2 -57 7 0 24 32 34
63 6 18 -12 57 -27 57 -4 0 -5 -11 -1 -25z"></path>
<path d="M5665 3285 c-19 -15 -19 -15 10 -13 17 2 29 7 28 13 -3 16 -18 16
-38 0z"></path>
<path d="M5820 3281 c0 -16 51 -44 62 -33 7 7 0 15 -20 26 -36 18 -42 19 -42
7z"></path>
<path d="M5349 3254 c-36 -36 -72 -41 -428 -66 -26 -2 -46 -9 -49 -17 -3 -10
7 -12 49 -8 30 3 122 11 204 17 97 6 169 17 205 29 53 19 85 45 74 62 -9 16
-29 10 -55 -17z"></path>
<path d="M5497 3264 c2 -6 12 -11 21 -9 9 2 20 4 25 4 4 1 7 5 7 9 0 5 -13 9
-29 9 -19 0 -27 -5 -24 -13z"></path>
<path d="M3221 3256 c-12 -14 -5 -46 9 -46 9 0 20 25 20 46 0 18 -14 18 -29 0z"></path>
<path d="M4150 3265 c0 -15 18 -40 24 -34 3 3 -1 14 -9 25 -8 10 -14 15 -15 9z"></path>
<path d="M2106 3238 c-23 -32 -11 -34 24 -4 27 22 29 26 11 26 -11 0 -27 -10
-35 -22z"></path>
<path d="M2400 3251 c0 -11 26 -22 34 -14 3 3 3 10 0 14 -7 12 -34 11 -34 0z"></path>
<path d="M4200 3250 c0 -5 5 -10 10 -10 6 0 10 5 10 10 0 6 -4 10 -10 10 -5 0
-10 -4 -10 -10z"></path>
<path d="M4480 3248 c1 -22 47 -66 66 -65 13 1 25 -11 38 -36 25 -52 12 -59
-27 -16 -18 20 -36 35 -42 35 -13 -2 -55 -38 -55 -48 0 -16 22 -8 41 15 19 22
19 22 34 2 9 -11 15 -31 14 -45 -2 -42 0 -50 16 -50 10 0 15 7 13 18 -2 11 4
18 17 20 12 2 26 12 33 22 10 16 9 21 -8 30 -11 6 -20 19 -20 30 0 10 -21 37
-46 59 -47 41 -74 52 -74 29z"></path>
<path d="M3701 3240 c0 -8 4 -24 9 -35 7 -19 8 -19 15 -2 5 12 2 24 -9 35 -13
13 -16 14 -15 2z"></path>
<path d="M3800 3241 c0 -11 39 -25 47 -18 3 3 2 10 -2 16 -8 13 -45 15 -45 2z"></path>
<path d="M5795 3241 c-6 -11 9 -23 19 -14 9 9 7 23 -3 23 -6 0 -12 -4 -16 -9z"></path>
<path d="M2834 3226 c-8 -21 -1 -49 14 -54 8 -2 12 8 12 32 0 36 -16 49 -26
22z"></path>
<path d="M2926 3232 c-7 -11 31 -48 41 -38 4 3 -2 16 -14 27 -11 12 -23 17
-27 11z"></path>
<path d="M5660 3183 c-18 -32 -42 -68 -53 -80 -11 -13 -17 -26 -12 -30 4 -5
10 -2 12 4 3 7 22 34 44 60 21 26 39 53 39 60 0 20 18 15 30 -7 6 -11 18 -20
27 -20 12 0 11 6 -9 32 -14 18 -29 33 -35 35 -6 2 -25 -22 -43 -54z"></path>
<path d="M5922 3212 c-6 -14 -9 -28 -6 -31 4 -3 9 0 11 7 8 23 31 12 70 -32
49 -55 105 -90 133 -81 12 4 20 2 20 -5 0 -7 8 -9 21 -5 12 4 32 1 46 -6 20
-11 26 -11 32 0 7 10 9 10 14 -2 8 -20 41 -26 219 -36 178 -11 206 -21 290
-99 45 -42 58 -48 136 -64 47 -9 89 -15 92 -12 10 11 -34 34 -64 34 -57 0
-107 21 -146 60 -47 47 -104 84 -145 94 -16 4 -88 10 -160 12 -71 2 -141 6
-155 8 -14 3 -28 5 -32 5 -4 1 -23 15 -43 32 -19 17 -45 31 -58 30 -79 -3
-109 0 -141 13 -20 8 -36 20 -36 25 0 16 -32 51 -60 66 -23 12 -26 11 -38 -13z"></path>
<path d="M1970 3215 c0 -10 10 -15 28 -15 15 0 33 -5 40 -12 7 -7 12 -8 12 -4
0 13 -44 45 -62 46 -10 0 -18 -7 -18 -15z"></path>
<path d="M3573 3207 c-11 -15 -31 -27 -43 -27 -11 0 -18 -4 -15 -10 3 -5 12
-10 18 -10 20 1 70 47 65 60 -3 9 -11 4 -25 -13z"></path>
<path d="M3950 3217 c0 -17 20 -37 37 -37 10 0 10 6 -3 25 -18 27 -34 33 -34
12z"></path>
<path d="M5417 3223 c-12 -12 -7 -22 8 -17 8 4 15 10 15 15 0 11 -14 12 -23 2z"></path>
<path d="M2300 3211 c0 -12 29 -23 41 -15 18 10 9 24 -16 24 -14 0 -25 -4 -25
-9z"></path>
<path d="M2650 3204 c0 -8 5 -12 10 -9 6 3 10 10 10 16 0 5 -4 9 -10 9 -5 0
-10 -7 -10 -16z"></path>
<path d="M3650 3204 c0 -8 5 -12 10 -9 6 3 10 10 10 16 0 5 -4 9 -10 9 -5 0
-10 -7 -10 -16z"></path>
<path d="M5513 3198 c-13 -27 -43 -106 -43 -113 0 -3 11 5 25 17 17 15 25 32
25 55 0 21 6 36 15 39 8 4 12 10 9 15 -9 15 -20 10 -31 -13z"></path>
<path d="M1796 3152 c-63 -34 -76 -37 -150 -37 -69 0 -86 -4 -110 -23 -16 -12
-41 -22 -57 -22 -15 0 -30 -4 -34 -9 -8 -14 -75 -1 -113 22 -24 14 -43 18 -69
14 -20 -4 -44 -2 -53 3 -16 9 -27 6 -100 -18 -8 -3 -17 -5 -20 -4 -12 2 -147
-17 -162 -23 -11 -4 -18 0 -23 14 -3 12 -13 21 -22 21 -8 0 -30 7 -49 16 -31
15 -37 15 -67 1 -17 -8 -47 -18 -64 -22 -52 -11 -38 -26 20 -23 28 2 62 -1 75
-5 14 -5 22 -4 22 2 0 6 -11 13 -25 17 -31 8 -33 24 -3 24 26 0 98 -31 98 -42
0 -4 -4 -8 -10 -8 -5 0 -10 -5 -10 -10 0 -11 190 -4 220 8 8 3 22 7 30 8 8 2
31 7 51 12 60 15 139 9 155 -12 16 -23 85 -31 139 -17 100 26 133 37 148 50
11 9 29 11 55 6 43 -7 102 12 162 52 19 13 43 23 52 23 10 0 18 5 18 10 0 18
-34 9 -104 -28z"></path>
<path d="M3236 3171 c-27 -30 -9 -47 20 -20 13 12 21 26 18 30 -8 14 -19 11
-38 -10z"></path>
<path d="M3717 3163 c-15 -8 -25 -19 -22 -24 7 -11 35 2 55 25 15 19 4 19 -33
-1z"></path>
<path d="M4100 3170 c0 -5 7 -10 15 -10 8 0 15 5 15 10 0 6 -7 10 -15 10 -8 0
-15 -4 -15 -10z"></path>
<path d="M5315 3170 c-3 -5 -2 -10 4 -10 5 0 13 5 16 10 3 6 2 10 -4 10 -5 0
-13 -4 -16 -10z"></path>
<path d="M5352 3141 c-57 -52 -53 -60 8 -14 46 34 61 53 42 53 -4 0 -26 -17
-50 -39z"></path>
<path d="M2470 3156 c0 -14 29 -31 38 -21 6 6 -18 35 -29 35 -5 0 -9 -6 -9
-14z"></path>
<path d="M2542 3143 c4 -37 25 -40 30 -3 4 24 1 30 -14 30 -15 0 -19 -6 -16
-27z"></path>
<path d="M4790 3159 c0 -20 21 -49 35 -49 8 0 15 5 15 10 0 6 -7 10 -15 10 -8
0 -15 9 -15 20 0 11 -4 20 -10 20 -5 0 -10 -5 -10 -11z"></path>
<path d="M3370 3131 c0 -12 5 -21 10 -21 6 0 10 6 10 14 0 8 -4 18 -10 21 -5
3 -10 -3 -10 -14z"></path>
<path d="M3999 3137 c15 -18 61 -23 61 -7 0 6 -6 10 -12 10 -7 0 -24 3 -38 7
-22 6 -24 5 -11 -10z"></path>
<path d="M4136 3134 c-10 -25 -7 -34 9 -28 8 4 15 15 15 25 0 23 -16 25 -24 3z"></path>
<path d="M5420 3140 c0 -5 5 -10 10 -10 6 0 10 5 10 10 0 6 -4 10 -10 10 -5 0
-10 -4 -10 -10z"></path>
<path d="M650 3120 c-6 -11 -7 -20 -2 -20 10 0 32 21 32 32 0 16 -19 8 -30
-12z"></path>
<path d="M1940 3130 c0 -5 4 -10 9 -10 6 0 13 5 16 10 3 6 -1 10 -9 10 -9 0
-16 -4 -16 -10z"></path>
<path d="M1911 3121 c-8 -6 -9 -11 -3 -15 6 -3 14 -1 17 5 9 14 2 20 -14 10z"></path>
<path d="M3630 3120 c0 -5 5 -10 10 -10 6 0 10 5 10 10 0 6 -4 10 -10 10 -5 0
-10 -4 -10 -10z"></path>
<path d="M3723 3115 c-3 -9 -3 -19 1 -22 8 -9 37 18 30 28 -8 14 -24 11 -31
-6z"></path>
<path d="M2395 3100 c5 -17 2 -20 -21 -20 -15 0 -42 5 -60 12 -29 10 -35 9
-70 -20 -21 -18 -47 -32 -56 -32 -10 0 -18 -5 -18 -11 0 -16 48 -3 82 22 24
17 37 19 95 13 38 -4 80 -13 94 -20 42 -21 41 -6 -2 37 -44 44 -53 48 -44 19z"></path>
<path d="M4250 3100 c-7 -13 -7 -20 -1 -20 6 0 15 9 21 20 7 13 7 20 1 20 -6
0 -15 -9 -21 -20z"></path>
<path d="M5280 3113 c0 -5 -16 -26 -37 -46 -33 -33 -43 -57 -17 -39 20 13 67
83 60 89 -3 3 -6 2 -6 -4z"></path>
<path d="M4300 3095 c0 -8 5 -15 10 -15 6 0 10 7 10 15 0 8 -4 15 -10 15 -5 0
-10 -7 -10 -15z"></path>
<path d="M5382 3087 c-26 -27 -31 -57 -7 -37 8 7 15 9 16 4 0 -5 5 4 10 20 11
39 7 41 -19 13z"></path>
<path d="M5435 3099 c-9 -14 -2 -20 14 -10 8 6 9 11 3 15 -6 3 -14 1 -17 -5z"></path>
<path d="M4867 3093 c-11 -10 -8 -53 3 -53 6 0 10 14 10 30 0 31 -2 35 -13 23z"></path>
<path d="M5520 3082 c0 -10 -5 -23 -11 -29 -6 -6 -9 -19 -7 -29 3 -16 7 -13
21 13 19 36 22 63 7 63 -5 0 -10 -8 -10 -18z"></path>
<path d="M2494 3069 c-10 -17 11 -33 32 -21 16 9 16 10 -4 21 -15 8 -23 8 -28
0z"></path>
<path d="M4430 3065 c0 -17 2 -18 24 -9 23 9 20 24 -4 24 -11 0 -20 -7 -20
-15z"></path>
<path d="M1980 3060 c0 -5 5 -10 10 -10 6 0 10 5 10 10 0 6 -4 10 -10 10 -5 0
-10 -4 -10 -10z"></path>
<path d="M2582 3059 c2 -6 8 -10 13 -10 5 0 11 4 13 10 2 6 -4 11 -13 11 -9 0
-15 -5 -13 -11z"></path>
<path d="M2678 3057 c-43 -16 -34 -23 30 -23 31 1 65 -3 75 -8 11 -5 17 -4 17
3 0 25 -80 44 -122 28z"></path>
<path d="M3365 3050 c-3 -5 1 -10 9 -10 9 0 16 5 16 10 0 6 -4 10 -9 10 -6 0
-13 -4 -16 -10z"></path>
<path d="M3720 3049 c0 -5 5 -7 10 -4 6 3 10 8 10 11 0 2 -4 4 -10 4 -5 0 -10
-5 -10 -11z"></path>
<path d="M2827 3043 c-12 -12 -7 -23 9 -23 22 0 99 -48 180 -111 36 -29 67
-49 70 -46 5 5 -120 119 -139 126 -6 2 -31 17 -56 33 -48 30 -54 32 -64 21z"></path>
<path d="M3630 3040 c0 -5 5 -10 10 -10 6 0 10 5 10 10 0 6 -4 10 -10 10 -5 0
-10 -4 -10 -10z"></path>
<path d="M1765 3030 c-3 -5 1 -10 9 -10 9 0 16 5 16 10 0 6 -4 10 -9 10 -6 0
-13 -4 -16 -10z"></path>
<path d="M3045 3019 c-4 -6 -5 -13 -2 -16 7 -7 27 6 27 18 0 12 -17 12 -25 -2z"></path>
<path d="M4460 3010 c34 -27 63 -26 31 0 -13 11 -31 20 -40 20 -12 0 -10 -5 9
-20z"></path>
<path d="M4736 3022 c-3 -6 -2 -22 3 -35 6 -16 6 -38 1 -56 -9 -34 -6 -38 15
-18 8 8 12 30 10 56 -4 45 -18 71 -29 53z"></path>
<path d="M4811 2998 c-5 -13 -7 -25 -4 -28 5 -6 33 30 33 42 0 17 -21 7 -29
-14z"></path>
<path d="M5305 2990 c2 -8 4 -17 4 -19 2 -7 31 21 31 30 0 4 -8 7 -19 6 -11
-1 -17 -7 -16 -17z"></path>
<path d="M3140 2989 c0 -5 5 -7 10 -4 6 3 10 8 10 11 0 2 -4 4 -10 4 -5 0 -10
-5 -10 -11z"></path>
<path d="M5345 2980 c-3 -6 1 -13 10 -16 19 -8 30 0 20 15 -8 14 -22 14 -30 1z"></path>
<path d="M5415 2979 c-10 -15 3 -25 16 -12 7 7 7 13 1 17 -6 3 -14 1 -17 -5z"></path>
<path d="M5460 2979 c0 -5 5 -7 10 -4 6 3 10 8 10 11 0 2 -4 4 -10 4 -5 0 -10
-5 -10 -11z"></path>
<path d="M4503 2956 c-46 -14 -41 -26 12 -26 32 0 45 4 45 14 0 19 -19 23 -57
12z"></path>
<path d="M4340 2939 c0 -5 5 -7 10 -4 6 3 10 8 10 11 0 2 -4 4 -10 4 -5 0 -10
-5 -10 -11z"></path>
<path d="M4654 2939 c-10 -17 11 -31 39 -24 17 5 24 12 20 21 -6 16 -49 19
-59 3z"></path>
<path d="M4920 2940 c0 -5 7 -10 15 -10 8 0 15 5 15 10 0 6 -7 10 -15 10 -8 0
-15 -4 -15 -10z"></path>
<path d="M4382 2879 c2 -7 10 -15 17 -17 8 -3 12 1 9 9 -2 7 -10 15 -17 17 -8
3 -12 -1 -9 -9z"></path>
<path d="M4435 2820 c20 -22 31 -20 22 5 -4 8 -14 15 -23 15 -16 0 -16 -2 1
-20z"></path>
<path d="M3597 2384 c-2 -2 -21 -5 -43 -8 -39 -3 -122 -34 -94 -35 8 0 62 6
120 13 59 7 117 10 133 5 15 -4 91 -8 168 -7 156 0 180 -6 249 -61 48 -39 52
-41 155 -96 39 -20 77 -43 86 -51 8 -8 31 -17 50 -20 19 -4 39 -11 46 -16 7
-5 14 -5 17 1 8 13 -18 26 -65 35 -21 4 -43 13 -50 22 -7 8 -40 29 -73 45 -86
43 -104 53 -134 81 -15 14 -50 37 -78 53 -49 25 -60 27 -210 30 -88 2 -185 6
-216 8 -31 3 -59 3 -61 1z"></path>
<path d="M3390 2325 l-25 -14 26 -1 c15 0 32 7 39 15 17 20 -5 20 -40 0z"></path>
<path d="M3270 2280 c-8 -5 -12 -11 -9 -14 2 -3 11 -1 19 4 8 5 12 11 9 14 -2
3 -11 1 -19 -4z"></path>
<path d="M2720 2070 c0 -11 5 -20 11 -20 6 0 24 -9 41 -21 33 -24 49 -18 25 9
-10 10 -17 23 -17 29 0 12 -23 23 -46 23 -8 0 -14 -9 -14 -20z"></path>
<path d="M4522 2079 c2 -7 10 -15 17 -17 8 -3 12 1 9 9 -2 7 -10 15 -17 17 -8
3 -12 -1 -9 -9z"></path>
<path d="M4560 2040 c0 -5 4 -10 10 -10 5 0 32 -13 58 -30 48 -29 79 -39 68
-21 -8 12 -112 71 -126 71 -5 0 -10 -4 -10 -10z"></path>
<path d="M4711 1973 c1 -12 69 -66 75 -61 8 9 -46 68 -62 68 -8 0 -14 -3 -13
-7z"></path>
<path d="M4870 1856 c0 -2 7 -7 16 -10 8 -3 12 -2 9 4 -6 10 -25 14 -25 6z"></path>
<path d="M5000 1810 c0 -5 5 -10 10 -10 6 0 10 5 10 10 0 6 -4 10 -10 10 -5 0
-10 -4 -10 -10z"></path>
<path d="M5210 1710 c0 -5 5 -10 11 -10 5 0 7 5 4 10 -3 6 -8 10 -11 10 -2 0
-4 -4 -4 -10z"></path>
<path d="M3880 1620 c0 -5 7 -10 15 -10 8 0 15 5 15 10 0 6 -7 10 -15 10 -8 0
-15 -4 -15 -10z"></path>
<path d="M5360 1620 c0 -4 6 -12 13 -18 18 -14 57 -25 57 -15 -1 10 -70 43
-70 33z"></path>
<path d="M6075 1320 c3 -5 8 -10 11 -10 2 0 4 5 4 10 0 6 -5 10 -11 10 -5 0
-7 -4 -4 -10z"></path>
<path d="M6298 1233 c6 -2 18 -2 25 0 6 3 1 5 -13 5 -14 0 -19 -2 -12 -5z"></path>
</g>
</svg>